/* XPM */
static char *a3a029fe71bc41e3c7bd86a833dff8d9SBaVr6Wqs0Zias9Q[] = {
/* columns rows colors chars-per-pixel */
"100 100 86 1 ",
"  c #000000",
". c #0E0302",
"X c #0C0C0C",
"o c #150603",
"O c #170803",
"+ c #1A0A04",
"@ c #141413",
"# c #1D1B1C",
"$ c #240D06",
"% c #2C1107",
"& c #2C1108",
"* c #331408",
"= c #391709",
"- c #3D190B",
"; c #201F1F",
": c #222221",
"> c #2E2E2E",
", c #323232",
"< c #3A3A3A",
"1 c #451C0D",
"2 c #4B1F0D",
"3 c #53230E",
"4 c #5C270F",
"5 c #5B2710",
"6 c #632A11",
"7 c #6C2E12",
"8 c #6F3013",
"9 c #733114",
"0 c #793516",
"q c #424242",
"w c #4E4D4D",
"e c #535353",
"r c gray38",
"t c #6C6C6B",
"y c #737272",
"u c #7D7D7C",
"i c #803713",
"p c #853914",
"a c #8A3A14",
"s c #933F16",
"d c #943F18",
"f c #964016",
"g c #9D4313",
"h c #9A4115",
"j c #984116",
"k c #994116",
"l c #9A4216",
"z c #9B4216",
"x c #9C4214",
"c c #9D4315",
"v c #9E4314",
"b c #A64311",
"n c #A34412",
"m c #A54410",
"M c #A64411",
"N c #A44413",
"B c #A44314",
"V c #A14514",
"C c #A14515",
"Z c #A14516",
"A c gray57",
"S c #9B9A9A",
"D c gray63",
"F c #A5A5A5",
"G c gray68",
"H c #BAB9B9",
"J c #BFBEBE",
"K c #C5C5C4",
"L c #CBCBCB",
"P c gray82",
"I c gray83",
"U c #D7D7D7",
"Y c #DBDBDA",
"T c #DCDBDC",
"R c #DFDFDF",
"E c #E2E2E2",
"W c gray92",
"Q c gray93",
"! c #EFEEEE",
"~ c #F1F1F1",
"^ c gray95",
"/ c #F3F3F3",
"( c #F6F6F5",
") c gray97",
"_ c #F8F8F8",
"` c #FEFEFE",
/* pixels */
"`_T:                                           ;Y(`t                                           .D(!!",
"_K                                               H#                                              </~",
"R                                                                                                 y`",
">   .9cnCCCCCCCCCCCnCCCCCCCCCCCCCCCCCCCCCCCCc9.      1fCCCCCCCCCCCCCCCCCCCCCCCCCCCCCCCCCCCCCCa&    )",
"    BMMnmnmnMnMMMnmnMMMMMMmMMnmMmnmnMnMMnmMmMMM     0MMnMMMMMnMMmMMMmnmnMMmMMnmMmnmnMnMMnmMmnMn2   y",
"   6MMMnMMMMMMMnMmMMnmnmnMnMMmnMMMMMMMMnMMMnMMM9   .mmMnnmnmMMMnnMnmMMMMnMnMMmnMMMMMMMMnMMMnmMmn   >",
"   fMMMMMnmMmnMnMnMMmMMnMMMMMMMMMnmMmnMnnMMMMnnx   -mBMMmMMnMMMnmMmnMnmMMMMMMMMMMnmMmnMnnmnMMMmMo  >",
"   zMMnMMmnMMMMMMmnmnMMmMnnMnmnmMmnMMMMMMMnnMMMg   1mmMMnMMMnnMMnMMMMmnMMnnMnmnmMmnMMMMMMMmMmnnMO  ,",
"   zmnmnMnmMMMMnMnmnmMMnMMMMMMMMMMMnmMMMMMMnMnmg   1nMMMmMMnmnmMmMMMMnmMmnmnmnmnMMMnmMMMMMMnmMMMo  ,",
"   zMMMMMmnMnmMmMmMMnMMmnmnmnmnmnmMmnMnmnmMmMmMg   1mMnMnMMmMMnMnMnmMmnMMMMMMMMMnmMmnMnmnmMmnMnmo  ,",
"   zMnmMMMMMmnMnMnMMmnmnmMMnmMMnmnMnmMmnmnMnMnMg   1BmMMmnmnMMmMmMmnMMMMMnmMMnmMmnMnmMmnmnMnmMmno  >",
"   zMmnMnmnmMMMmMmnmMMMMnMMmnMMmMMMmnMMMMMMmMmng   1BmBmMMMMnmnMnMMMnmnmMmnMMmnMMMMmnMMMMMMmnMMMo  ,",
"   zmMMMmnmnMMMnMnmnMMMMmnmMMnmnMnmMMnmMMnmMMnMg   1mmmmMMMMmnmMmMMMmnmnMMMnmMMMMnmMMnmMMnmMMnmMo  ,",
"   znMnmMMMMnmMmMmMMnmnmMMnMMmMMMmnMMmnMMmnMMmmg   2BmBmnmnmMMnMnMnmMMMMnmMmnMnmMmnMMmnMMmnMMmnMO  ,",
"   zmMmnMnmMmnMnMnMMmMMnMMmMMnMMMMMMMMMMMMMMMMMg   1mmMMmMMnMMmMmMmnMnmMmnMnmMmnMMMMMMMMMMMMMMMMO  >",
"   znMMMMmnMMMMmMmnmnMMmnmnMMmnmnmnmnmnmnmnmnmng   1mmnmnMMmnmnMnMMMMmnMMMMmnMMMnmnmnmnmnmnmnmnmO  >",
"   zMnMMnmMmMMnmMMnmMmMMMnmnmMMnMMMMMMMMMMMMMMMg   2BmmmmmMnMMMnmMMMMnmMMMMnmMMMMMMMMMMMMMMMMMMMO  >",
"   zMMMnMMMnmnMMmnMMMnmnMmMMnMMmnmnmnmnmnmnmnmng   1mBmBMBMnMnMmnMnmMmnMnmMmnMnmnmnmnmnmnmnmnmnmO  ,",
"   zmnMnnmnMMmMmMmMmnMMMMnMMmnmnmMMnmMMnmMMnmMMg   1mmMnMMMMmnMnmMmnMMMMmnMnmMmnmMMnmMMnmMMnmMMnO  ,",
"   zMMMMMMmMMnMnMnMnmMmnMmnmMMMMnMMmnMMmnMMmnMmg   2mnMMMMnMMMMmnMMMnmnmMMMmnMMMnMMmnMMmnMMmnMMmo  >",
"   zMMMnnmMmnMMMnMnMMmMMMnmnMMMnmnmMMnmnmnmMmMMg   1bbMMmnmnMMMnmMMMmnmnMnmMMnmMmnmMMnmnmnmMMnmnO  >",
"   znmMmMMMnmMnnmMmMMnmnMmMMnnMMMMnMMmMMMMnMnMng   2MbMMMMMMnmMmnMnmMMMMMmnMMmnMMMnMMmMMMMnMMmMMO  ,",
"   zmnMnnmnMMMMMMMnmnMMMMnMMmMnMMMmMMnMMMMmMmMmg   1BmBMMnmMmnMnmMmnMnmMMMMMMMMMMMmMMnMMMMmMMnMMO  ,",
"   zMMMmMMmMmnnMmnMMmMmnMmnmnMMMnmnMMmnmnmnMnMMg   1bmMMMmnMMMMmnMMMMmnMnmnmnmnmnmnMMmnmnmnMMmnmO  ,",
"   zMnMnmnmMMnMMMmMMMMMMnnMMMMMnmMMnmnmMMnmnmMng   2BmmmMnmMMMMnmMMMMnmMmnmnMMMnmMMnmnmMMMMMnMMnO  >",
"   zMnMMMMnMMMMnMnmnMBMMMMMnMMMMnMMmMMnMMmMMnMMg   1mBmBMmnMnmMmnMnmMmnMMMMMnnMMnMMmMMnMBmMMnMMno  >",
"   zMMnMMMmMBMBmnMMMmmmmMMMnmBmmmnmnMMmMMnMMmnmg   1BmmmMMMMmnMnnMMMMMMMMnmMMMnMmnmnMMmMmmmBMMMMO  >",
"   znMMMnmnMmmmmmMmnmBmBnnMMmmBmMMMMnmnMMmnnMMMg   1mmmBnmnmMMMmMMnnnmnmMmnMMnMMMMMMnmnMBmmmMnnMO  ,",
"   aMMMnmMMMnmmmMMmmmBmmmMmmmBmBmmmmmnmMnMMMMMMs   &MmmmmmmmMMMnBMMMmmmmMMMnmmmMMMmmmnmMmmmmMMmm.  ,",
"   1MMMnnMnMMMmmmnmmmmmBnMmmmmmmBmBmMMnMMMnMMMB2    nnmmmBmmnmMmmmnMmmmmnmMmBmBMnBmmMMnMmnBmMbmc   <",
"    pMMMmMnMnmmnMmmnmBmmmmmnmBmBmmmmmnmMMnnMnMa     -nmnBMnmmmMnBmmmBMnmmmMnnmmnMMmmmnmMnMMnMMM+   F",
"t    $699999999999999999999999999999999999996$       .299999999999999999999999999999999999907-    .!",
"!X                                                                                                L`",
"!W                                                                                               y``",
"_X                                                                                                H~",
"t    *9aaaaaaaaaaaaa8$       $8aaaaaaaaaaaaaaaaaaaaaaaaaaaaaaaaaaaaai2        3paaaaaaaaaaaap3     !",
"    anMMMnMMmMMMMnMMnM8     0MMMmnmnMnMMmMMMmnmnMMnmMMnmnMnMMnMMmMMMMMgo    +MMnmnmnMMMMmMMMnMnO   G",
"   -MMMnMMMnnMnmMMMnMMm+   +nmMnMMMMMMMnnMnmMMMMnMMMmnMMmMmMMMMnnMnmnMM0    zMMnMMMMMMMnnMnmMMMz   q",
"   anmnMnMMMmMmnnMMMMnM6   6MMMnMnmMmnMnmMmnMnmMMMMmMmMmMMnmnMMMmMmnMMMn    MMMMMnmMmnMnmMmnMnmM   ,",
"   fMMmMmMmnnMMMmMmnMnM0   9nmMmMmnMMMMMnMMMMmnMMnMnMnMnmnMMmMmnnMMMMnnM   oMnnMMmnMMMMMnMMMMmnMO  >",
"   dMnMMmMMMMnmMMMnmMmM0   9MmMMMMMnmMMMMMMnmMMMnMnMnMnMMMnmMmMMmMMMMnMn   .MMMMMMMnmMMMMMMnmMMM.  >",
"   dMMMnnMnmMmnMmnMMMnM0   9mmnmnmMmnMnmnmMmnMnmmMmMmMmMmnMMMnmnnMnmMmMn   onmnmnmMmnMnmnmMmnMnm.  >",
"   dMMMnmMmnMMMMMmMmmnn0   0mMmMmnMnmMmnmnMnmMmnMMnmMMnmMmMmnMMMmMmnMMMM   .mMMnmnMnmMmnmnMnmMmnO  ,",
"   dnnMMnMMMnmnmMnMnMMM0   9mnnMMMMmnMMMMMMmnMMMmnMMmnMMMnMnmMmnnMMMnmnn   .nMMmMMMmnMMMMMMmnMMM.  ,",
"   dMMMnmMMMmnmnmnmnMMM0   9MMMMMnmMMnmMMnmMMnmMMmMMnmMmnMnMMmMMnMMMmmMC   oMnmnMnmMMnmMMnmMMnmM.  ,",
"   dMnMMnMnmMMMMMMMMnmM0   9mnmnMmnMMmnMMmnMMmnMMnmnMMMnmMmMMnmnMMnmBmmM   oMmMMMmnMMmnMMmnMMmnMO  >",
"   dmnMnmMmnMnmMMnmMmnn0   0nMMmMMMMMMMMMMMMMMMMnMMMnmnMMMnmnMMMMnMnMMMM   .MnMMMMMMMMMMMMMMMMMM.  >",
"   sMMMmnMMMMmnMMmnMMMM0   0mMMnnmnmnmnmnmnmnmnmmMmnMMmMmnMMmMmnMnMMMMMM   .Mmnmnmnmnmnmnmnmnmnm.  ,",
"   dmMMMMnmMMMMnmMMMMnM0   9MmnmMMMMMMMMMMMMMMMMMmMMnmMmMMnmMmMMMnmnmMnn   oMnmnmnmnmnmnmnmnmnmn.  ,",
"   dnMnmMmnMnmMmnMnmMmm0   9MnMMnmnmnmnmnmnmnmnmMnmnMMMnmnMMMnmnMmMMnMMM   .MmMMMMMMMMMMMMMMMMMMO  ,",
"   dmMmnMMMMmnMnmMmnMMM0   9MmMMmMMnmMMnmMMnmMMnnMMMnmnMMmMmnMMMMnMMmnmn   .MnMnMnmMMnmMMnmMMnmM.  >",
"   dnMMMnmnmMMMmnMMMnmn0   9MnmnnMMmnMMmnMMmnMMmmMmnMMmMMnMnmMmnMmnmMMMn   .MnMMMmnMMmnMMmnMMmnMO  >",
"   dMMmMmnmnMMMnmMMMmnn0   9MmMmmnmMMnmnmnmMMnmnMMnmMMnmnMnMMmMMMnmnMMMn   .MmnMMMMnmMMMMMMnmMMM.  ,",
"   dnMnMMMMMnmMmnMnmMMM0   9mmnmMMnMMmMMMMnMMmMMmnMMmnMMmMmMMnmnMmMMnnMM   .mmMMnmMmnMnmnmMmnMnm.  ,",
"   dMMMMMnmMmnMnmMmnMnM0   9mnMMMMmMMnMMMMmMMnMMMmMmMmMmMMnmnMMMMnMMmMnn   omMMnmnMnmMmnmnMnmMmn.  ,",
"   dMnnMMmnMMMMmnMMMMmM0   0mmmnnmnMMmnmnmnMMmnmMnMnMnMnmnMMmMmnMmnmnMMM.  .BMMMMMMmnMMMMMMmnMMMO  >",
"   dMmMMMnmMMMMnnmMmMMm0   9MnnMmMMnmnmMnMMMnMMnMmMmnMMMMMnmMmMMnMMMnMnn   oMMMnMnmMMMMnmMMMMnmM.  >",
"   dMnMnMmnMnmMmMMMnmnn0   9MMMMnMMmMMnMMMnMnMMmMnMnMMnnmnMMMnmnMMnMnMMM   .nnMMMmnMnmMmnMnmMmnMo  ,",
"   dnmMMMMMMmnMnnmnMMmM0   9MnMnmnmnMMmMMnMMmnmnnmMMMnMMMmMmnMMMMnMMmnmn   .MMnMMMMMmnMnmMmnMMMM.  ,",
"   sMMnMnmnmMMMmMMMMMnM0   9MmMnMMMMnmnMMnMMMMMMMMmnMMnMMnMnmMmnMnMBMMMn   .MnMMnmnmMMMmnMMMnmnm.  ,",
"   aMnMMBmmmMMMnMMnnMMM6   6MMMMmmmmmnmMmmmBmnmnnMnmmmmMBmmmMmMMmmmmnMMn   .MmmMmmmmMMMnmMMMMnMM   >",
"   2MMMnmmmmnmMmnMMMMnM&   &BMMMBmmmMMnMmmmmMMMMmMMMmmBMMmmmMnmnmmmmMMna    gmBMmmmmnmMmnMnmMMMc   ,",
"    fMBMmmnmmmMnnMMMnmp     pBBbmmnmnmmMmmnmMnmMMmnmmmmnMMmmmnMMnmMMMnno    %MmnmBmnmmMnmmMMnMM&   S",
"w    3szfzzfzzfzzfzza-       1azfzzfxzfzzsxzzxzxzzxzzzzzzfxszzzfxfzff7.      o0fzzzfzzfzfzzff9o    `",
"~                                                                                                 A(",
"`E                                                                                               w!!",
"`#                                                                                                L!",
"u    .-1111111111111222322222221111111111111=.        &11111111111112222222322221111111111112$    X`",
"    8MnMMnmnMMMMnMMmnMnMnmnmMMmnmMMMmnmnCmMMnn8     &nnMMMnMMmMmmMmMMmnMmnMnmMmMCMmnMmnMMMnnnmc.   J",
"   *MMnMMmMMnmnmmmnmnmmMMMMMmnmMnMnmMMMMmmmmMmn=    gMnMmnmMMnMnnMnMmmnmMMMmnMnMmMMnMnmMnmmMnMnf   q",
"   amnMMMnMMmMMnmnMMMMMMMmnMnmnMmMmnMnmMmmMnMnMf   &MnMMMMMmnmMMMMmnMnMmmnmMMMmnmMmmMMMMnMmMMMnM.  >",
"   zMMMnMmnmnMMmmmmnmnmnMnmMMMnmnMMMMmnMmmMnMnmC   1MMMnmnMnMMmnnmMnmmMnMMnMnmMMmnnMmnmnmmmnnmmmo  >",
"   zMnmnmnmMMnmnnmnmnmnmMmnMMMMmmMMMMnmMmnmnmnmg   1mmmmmmmBMMnMMnMMmnMnMnMMmnMnMMmMMMmMMMmmMnnMo  ,",
"   cMMMMMMnMMmMMMMMMMMMMMnmMmnMnnMnmMmnMMMMMMMMg   1BmBmBmMMmnmMMmnmMMMmMmnmMMMmnMmnnMmnnMMnMMmmo  ,",
"   zMnMnMMmMMnMMMmnMMmnMMMMMnmMmmMmnMMMMMnmMMnng   1MmnMMMMMMMMmmMMMmnmMmMMMmnmMnMMnnMMnnmMnmMMMo  ,",
"   zMnMMnmnMMmnmMnmMMnmMmnmnMMMnnMMMnmnmMmnMMmMg   1nMMMnnMMmnMnnMnmMMnMnMnmMMnMmmMMmmMMMmMMmnnMo  >",
"   cBMnMmMMnmMMnMMMmnMMMnmnmMMMmmMMMmnmnMMMnMnmg   1bbMnMMMMnmMMMMmnMMmnMMmnMMmnMnnMMnnmMMmMMnnMo  >",
"   zMMMMnMMmnMMmmnMnmMmnMMMMmnMnnMnmMMMMnmMmMmMg   1bbMMMnmnMMmnnmMMnmMMnmMMnmMMMMmmMMMmnMmnMMmmo  ,",
"   cMMnnmnmnmnmnnmMmnMnmMmnMnmMmmMmnMnmMmnMnMnMg   2bMMMMMnMnMnMMnMnMnMnMnMnMnMnmMMMmmMMnMMnmMMMo  ,",
"   znMMMMMMMMMMMMMMnmMMMMnmMMMMnnMMMMmnMMMMmMmng   1BMMMnMmMmMmMMmMmMmMmMmMmMmMmmnnMMnnMmmMMmnnMo  ,",
"   znmnmnmnmnmnmMMMmnMMMMmnMMMMmmMMMMnmMMMMnMnmg   1nMMMnMnMnMnMMnMnMnMnMnMnMnMnMnnMMnnmMMmmMnnMO  >",
"   zMMMMMMMMMMMMmnMnmMmnMnmMmnMnnMnmMmnMnmMmMmMg   1mMMBmMmMmMmMMmMmMmMmMmMmMmMmMMmmMMMmnMMnMMmmO  >",
"   cMmnMMmnMMmnMnmMmnMnmMMMMnmMmmMmnMMMMmnMnMnMg   1BmmmMMnmMMnmmnMMmnMMmnMMmnMMmMMMmmMMnmMnmMMMO  ,",
"   cMnmMMnmMMnmMMMMnmMMMmnmnMMMnnMMMnmnmMMMmMmng   1BmmBmnMMmnMMMMnmMMnmMMnmMMnmmnnMMnnMMmMMmnnMo  ,",
"   znMMMMMMmnMMMMmnMMmnMnmnmMMMmmMMMmnmnMnmMMnMg   1MnBmMmMMnmMmmMmnMMmMmMmnMMmMMMmmMMmmMMmMMnnMO  ,",
"   zmMmnmnMnmMmnMnmMMnmMMMMMmnMnnMnmMMMMMmnMMmmg   2nmmmMnmnMMMnnMMMnmnMnMMMnmnMnMMnnMMnnMmnMMmmo  >",
"   znMnmnmMmnMnmMMMMMMMMMmnMnmMmmMmnMnmMMMMMMMMg   1mmnMnMMMnmnMMnmnMMMnMnmnMMMnnmMnnmMnnMMnmMMMo  >",
"   zmMMMMMMnmMMMmnmnmnmnMnmMMMMnnMMMMmnMnmnmnmng   1mMmMmMmnMMmMMmMMnmMmMmMMnmMmMmMMMmMMmmMMmnnMo  ,",
"   zMnMmnMMMMmnMnmnmnmnmMmnMMMMmmMMMMnmMmnmnmnmg   2bbmmnMMmMMnmmnMMmMmnMMmMmnMMMMMMMMMMMMmmMnnMo  ,",
"   zMnMnmMmnMnmMMMMMMMMMMnmMmnMnnMnmMmnMMMMMMMMg   1MBBmMMMnmnMMMMnmnMMMnmnMMMnmmnmnmnmnnMMnMMmmo  ,",
"   zMMmnnMnmMMMMMmnMMmnMMMMMnmMmmMmnMMMMMnmMMnng   1mbbmnMnMMmMmmMmMMnmnMMMnmMmMnMMmnMMmnmMnmMMMo  >",
"   zmnmMmMMMmnmnMnmMMnmMmnmnMMMnnMMMnmnmMmnMMmMg   2BBmmMMMMMnMnnMnMMmMMnmMmnMnMmMMnmMMnMmMMmnnMo  >",
"   fnmmnnMMMnmnmMMMmnMMMnmnMMMMmmMMMmnmnMMMnMnMz   -bMMMMMnnnMMMMMMMmMmnMMMMmMMMnmnMMmnmMMMMMnnMo  ,",
"   8MMMMmMmnMMMMmnMnmMmnMMMMmnMnnMnmMMMMnmMmMnM9   oMMMMnMMMMMnnnMnMnMMMnMnMmnnMMMmMnMMMmnmnMMMm   ,",
"   .vnmnMnMMMmMnMMMmMnmmMmmbmbMmMMMMMnMMMMMnnMB.    pMMnMMMMMnMMMMMnnMmnnMnMMMbmMCnMnMMMnMMMnMM4   y",
":   .fMMMnnNnnMnnNnnMNbCnnmCMCMnnnnnMnnnnnMnnao      5gnnnnnMnMMMnnnMnMnMbCnMnCMnMMnMnnnnMnnMc1    E",
"E                                                                  .                              w!",
"/S                                               AX                                              :__",
"!/U@                                           @P(Wq                                            t_``",
"!~``Iy<<<<<<<<<<<<<<<<<<<<<q<<<<<<<<<q<<<<<<<tI``(!!_De<<<<<<<q<<<<<<<<<<q<<<<q<<<<<<<<<<<<<<rH!!_``"
};
